<svg 
 xmlns="http://www.w3.org/2000/svg"
 xmlns:xlink="http://www.w3.org/1999/xlink"
 width="132px" height="31px">
<path fill-rule="evenodd" 
 d="M101.423,30.499 L101.423,27.131 L111.060,27.131 L111.060,0.504 L114.985,0.504 L114.985,27.131 L117.680,27.131 L117.680,0.504 L121.604,0.504 L121.604,27.131 L131.241,27.131 L131.241,30.499 L101.423,30.499 ZM127.618,24.659 L123.941,24.659 C123.776,19.163 124.439,9.437 126.411,4.638 L130.239,4.638 C127.963,10.309 127.456,18.876 127.618,24.659 ZM105.046,24.663 C105.208,18.880 104.701,10.313 102.424,4.641 L106.252,4.641 C108.225,9.440 108.888,19.167 108.723,24.663 L105.046,24.663 ZM86.699,9.004 L90.453,9.004 C90.453,9.004 90.185,14.422 91.406,18.277 C92.640,22.175 95.193,24.431 96.192,25.181 L96.192,29.633 C93.628,28.364 89.990,25.007 88.323,20.711 C86.457,15.899 86.699,9.004 86.699,9.004 ZM83.350,30.499 L79.257,30.499 L79.257,7.157 L66.897,7.157 L66.897,3.640 L79.257,3.640 L79.257,0.504 L83.350,0.504 L83.350,3.640 L95.710,3.640 L95.710,7.157 L83.350,7.157 L83.350,30.499 ZM72.445,9.005 L76.249,9.005 C76.249,9.005 76.302,15.854 74.293,20.711 C72.767,24.403 68.932,28.281 66.374,29.633 L66.374,25.020 C67.373,24.270 70.139,21.406 71.217,18.270 C72.531,14.447 72.445,9.005 72.445,9.005 ZM55.308,19.711 C56.848,24.353 59.393,28.662 60.908,30.499 L56.246,30.499 C55.440,29.622 52.677,25.370 51.285,20.367 C50.908,19.012 50.536,17.823 50.178,16.530 L38.923,16.530 L38.923,26.989 C39.123,26.987 39.297,26.984 39.424,26.979 C42.367,26.858 43.991,26.712 45.584,26.369 L45.584,29.862 C44.089,30.311 41.451,30.499 39.733,30.497 C39.521,30.497 38.923,30.499 38.923,30.499 L35.049,30.499 L35.049,2.613 L35.217,2.612 C35.812,2.610 45.872,2.571 50.279,2.345 C55.353,2.084 58.385,1.726 61.008,1.055 L61.008,4.479 C59.551,4.976 57.235,5.477 51.478,5.762 C47.990,5.935 42.545,6.036 38.923,6.087 L38.923,12.774 L49.281,12.774 C49.010,11.407 48.751,9.816 48.508,7.852 L52.561,7.852 C52.829,9.712 53.119,11.332 53.421,12.774 L61.143,12.774 L61.143,16.530 L54.333,16.530 C54.655,17.691 54.983,18.731 55.308,19.711 ZM24.606,15.185 C24.582,13.874 24.514,10.683 24.486,9.342 L27.679,9.342 C27.685,10.619 27.699,13.480 27.701,13.757 C27.734,19.585 29.032,22.474 29.817,23.692 L29.817,28.952 C28.547,28.034 27.249,26.171 26.378,24.244 C25.338,21.944 24.669,18.579 24.606,15.185 ZM23.513,30.499 L20.004,30.499 L20.004,7.526 L15.699,7.526 L15.699,4.009 L20.004,4.009 L20.004,0.504 L23.513,0.504 L23.513,4.009 L29.369,4.009 L29.369,7.526 L23.513,7.526 L23.513,30.499 ZM15.859,9.342 L19.062,9.342 C19.063,10.590 19.066,14.475 19.064,14.925 C19.056,16.509 19.102,19.314 18.383,22.049 C17.755,24.438 15.739,27.828 14.205,29.309 L14.205,24.033 C14.273,23.878 14.339,23.724 14.402,23.571 C12.930,21.790 10.922,19.490 10.765,12.469 C10.752,11.923 10.764,10.296 10.766,9.342 L13.879,9.342 C13.880,10.005 13.879,10.825 13.879,11.783 C13.878,15.458 14.157,17.119 14.491,18.303 L14.491,23.354 C15.400,21.088 15.759,19.003 15.837,15.737 C15.846,15.368 15.852,10.556 15.859,9.342 ZM9.705,30.499 L6.196,30.499 L6.196,7.526 L0.469,7.526 L0.469,4.009 L6.196,4.009 L6.196,0.504 L9.705,0.504 L9.705,4.009 L14.019,4.009 L14.019,7.526 L9.705,7.526 L9.705,30.499 ZM1.835,9.342 L4.936,9.342 C4.937,10.537 4.941,12.199 4.936,13.241 C4.929,14.966 4.951,18.910 4.209,21.526 C3.541,23.878 1.717,27.082 -0.000,28.952 L-0.000,23.340 C1.309,21.031 1.786,18.731 1.813,14.134 C1.815,13.815 1.830,10.556 1.835,9.342 Z"/>
</svg>