<?xml version="1.0" encoding="UTF-8"?>
<svg width="16px" height="14px" viewBox="0 0 16 14" version="1.1" xmlns="http://www.w3.org/2000/svg" xmlns:xlink="http://www.w3.org/1999/xlink">
    <!-- Generator: Sketch 59.1 (86144) - https://sketch.com -->
    <title>编组 4</title>
    <desc>Created with Sketch.</desc>
    <g id="发货单" stroke="none" stroke-width="1" fill="none" fill-rule="evenodd">
        <g transform="translate(-775.000000, -139.000000)" fill="#1890FF" fill-rule="nonzero" id="查询字段">
            <g transform="translate(221.000000, 113.000000)">
                <g id="编组-4" transform="translate(554.000000, 26.000000)">
                    <path d="M1.64218052,7.63080684 L8,2.30454048 L14.3578195,7.63080684 C14.7811753,7.98547334 15.4118869,7.92978969 15.7665534,7.50643391 C16.12122,7.08307814 16.0655363,6.45236646 15.6421805,6.09769995 L9.28436104,0.771433598 C8.54127087,0.148909446 7.45872913,0.148909446 6.71563896,0.771433598 L0.357819481,6.09769995 C-0.0655362954,6.45236646 -0.12121995,7.08307814 0.233446557,7.50643391 C0.588113064,7.92978969 1.21882474,7.98547334 1.64218052,7.63080684 Z" id="路径" transform="translate(8.000000, 4.084409) rotate(-180.000000) translate(-8.000000, -4.084409) "></path>
                    <path d="M1.64218052,13.7665534 L8,8.44028709 L14.3578195,13.7665534 C14.7811753,14.12122 15.4118869,14.0655363 15.7665534,13.6421805 C16.12122,13.2188247 16.0655363,12.5881131 15.6421805,12.2334466 L9.28436104,6.9071802 C8.54127087,6.28465605 7.45872913,6.28465605 6.71563896,6.9071802 L0.357819481,12.2334466 C-0.0655362954,12.5881131 -0.12121995,13.2188247 0.233446557,13.6421805 C0.588113064,14.0655363 1.21882474,14.12122 1.64218052,13.7665534 Z" id="路径" transform="translate(8.000000, 10.220155) rotate(-180.000000) translate(-8.000000, -10.220155) "></path>
                </g>
            </g>
        </g>
    </g>
</svg>