<?xml version="1.0" encoding="UTF-8"?>
<svg width="22px" height="25px" viewBox="0 0 22 25" version="1.1" xmlns="http://www.w3.org/2000/svg" xmlns:xlink="http://www.w3.org/1999/xlink">
    <!-- Generator: Sketch 59.1 (86144) - https://sketch.com -->
    <title>通知</title>
    <desc>Created with Sketch.</desc>
    <g id="侧边菜单" stroke="none" stroke-width="1" fill="none" fill-rule="evenodd" opacity="0.876371838">
        <g transform="translate(-1252.000000, -15.000000)" fill="#F5F6FA" fill-rule="nonzero" id="top">
            <g>
                <g id="通知">
                    <g transform="translate(1252.000000, 15.000000)">
                        <path d="M14.312,20.156 C14.312,21.7005377 12.8598246,23 11.016,23 C9.17129889,23 7.719,21.7006361 7.719,20.156 L5.719,20.156 C5.719,22.8578663 8.11326266,25 11.016,25 C13.9179231,25 16.312,22.857688 16.312,20.156 L14.312,20.156 Z" id="路径"></path>
                        <path d="M15,4 C15,1.790861 13.209139,0 11,0 C8.790861,0 7,1.790861 7,4 L9,4 C9,2.8954305 9.8954305,2 11,2 C12.1045695,2 13,2.8954305 13,4 L15,4 Z" id="椭圆形"></path>
                        <path d="M2.93810267,10.6090518 L2.98698868,9.57874434 C3.27461935,5.86676997 6.81740962,3.031 11.062,3.031 C15.3074199,3.031 18.8503688,5.86661721 19.1399437,9.61004859 L19.187,10.656 L19.187,14.4631687 C19.3806777,14.6221345 19.5457524,14.7919348 19.6844014,14.9823684 L21.3582019,17.2810945 C22.6388472,19.0386262 21.8711092,21.034 19.654,21.034 L2.345,21.034 C0.128978811,21.034 -0.638589364,19.0390674 0.640598572,17.2813684 L2.31532763,14.9813685 C2.44149992,14.8085387 2.58984074,14.6510904 2.7598816,14.5047956 L2.93713846,14.3620621 L2.93810267,10.6090518 Z M11.062,5.031 C7.80515324,5.031 5.1827241,7.13008158 4.98289733,9.70294817 L4.937,10.656 L4.937,15.4802201 L4.43457101,15.7684232 C4.18172077,15.9134631 4.01144382,16.0499915 3.93140143,16.1596316 L2.18642833,18.5573131 L2.07653613,18.7200716 C1.91479453,18.9784495 1.97226199,19.0269216 2.26062275,19.033211 L19.7385456,19.033211 C20.1062715,19.0252578 20.0990965,18.9492545 19.7415986,18.4586316 L18.0675707,16.1595933 C18.0034543,16.0715298 17.8666617,15.9566124 17.655335,15.8239547 L17.187,15.5299634 L17.1880563,10.7019514 L17.1439887,9.73325566 C16.9422678,7.12997714 14.3197105,5.031 11.062,5.031 Z" id="路径"></path>
                    </g>
                </g>
            </g>
        </g>
    </g>
</svg>