<?xml version="1.0" encoding="UTF-8"?>
<svg width="22px" height="25px" viewBox="0 0 22 25" version="1.1" xmlns="http://www.w3.org/2000/svg" xmlns:xlink="http://www.w3.org/1999/xlink">
    <!-- Generator: Sketch 59.1 (86144) - https://sketch.com -->
    <title>通知</title>
    <desc>Created with Sketch.</desc>
    <g id="发货通知单详情" stroke="none" stroke-width="1" fill="none" fill-rule="evenodd" opacity="0.879999995">
        <g transform="translate(-1252.000000, -15.000000)" id="top" stroke="#F5F6FA" stroke-width="2">
            <g>
                <g id="通知">
                    <g transform="translate(1253.000000, 16.000000)">
                        <path d="M14.312,19.156 C14.312,21.279 12.389,23 10.016,23 C7.642,23 5.719,21.279 5.719,19.156" id="路径"></path>
                        <path d="M13,3 C13,1.34314575 11.6568542,0 10,0 C8.34314575,0 7,1.34314575 7,3" id="椭圆形"></path>
                        <path d="M18.654,19.034 L1.345,19.034 C-0.02,19.034 -0.361,17.983 0.449,16.87 L2.123,14.571 C2.315,14.308 2.611,14.088 2.937,13.901 L2.937,9.656 L2.984,8.656 C3.227,5.52 6.286,3.031 10.062,3.031 C13.839,3.031 16.898,5.52 17.141,8.656 L17.187,9.656 L17.187,13.977 C17.461,14.149 17.71,14.343 17.876,14.571 L19.55,16.87 C20.361,17.983 20.02,19.034 18.654,19.034 Z" id="路径"></path>
                    </g>
                </g>
            </g>
        </g>
    </g>
</svg>