<svg 
 xmlns="http://www.w3.org/2000/svg"
 xmlns:xlink="http://www.w3.org/1999/xlink"
 width="17px" height="17px">
<path fill-rule="evenodd"  fill="rgb(126, 126, 126)"
 d="M16.035,15.498 L12.524,11.987 C13.488,10.801 14.066,9.289 14.066,7.642 C14.066,3.833 10.979,0.746 7.171,0.746 C3.363,0.746 0.275,3.833 0.275,7.642 C0.275,11.450 3.363,14.537 7.171,14.537 C8.818,14.537 10.331,13.959 11.516,12.995 L15.027,16.506 C15.306,16.784 15.757,16.784 16.035,16.506 C16.313,16.227 16.313,15.776 16.035,15.498 L16.035,15.498 ZM1.727,7.642 C1.727,4.635 4.164,2.198 7.171,2.198 C10.177,2.198 12.614,4.635 12.614,7.642 C12.614,9.073 12.061,10.376 11.157,11.347 C11.100,11.379 11.046,11.419 10.997,11.468 C10.948,11.517 10.908,11.571 10.877,11.628 C9.905,12.532 8.602,13.085 7.171,13.085 C4.164,13.085 1.727,10.648 1.727,7.642 L1.727,7.642 Z"/>
</svg>