<?xml version="1.0" encoding="UTF-8"?>
<svg width="19px" height="21px" viewBox="0 0 19 21" version="1.1" xmlns="http://www.w3.org/2000/svg" xmlns:xlink="http://www.w3.org/1999/xlink">
    <!-- Generator: Sketch 59.1 (86144) - https://sketch.com -->
    <title>编组</title>
    <desc>Created with Sketch.</desc>
    <g id="侧边菜单" stroke="none" stroke-width="1" fill="none" fill-rule="evenodd" opacity="0.879999995">
        <g transform="translate(-1309.000000, -18.000000)" fill="#F5F6FA" fill-rule="nonzero" id="top">
            <g>
                <g id="编组">
                    <g transform="translate(1309.000000, 18.000000)">
                        <path d="M10.875,10.281 C15.3622847,10.281 19,13.9187153 19,18.406 C19,19.0024225 18.9242783,19.5981 18.7806462,20.2237515 L18.6024413,21 L0.397558682,21 L0.219353767,20.2237515 C0.0757217126,19.5981 0,19.0024225 0,18.406 C0,13.9187153 3.63771525,10.281 8.125,10.281 L10.875,10.281 Z M16.9848864,18.7994952 C16.9949428,18.6667763 17,18.5358432 17,18.406 C17,15.0232847 14.2577153,12.281 10.875,12.281 L8.125,12.281 C4.74228475,12.281 2,15.0232847 2,18.406 C2,18.6007648 2.01137878,18.7979818 2.03394028,19 L16.9660597,19 L16.9848864,18.7994952 Z" id="路径"></path>
                        <path d="M9.516,0 C12.6363654,0 15.156,2.57965265 15.156,5.75 C15.156,8.92034735 12.6363654,11.5 9.516,11.5 C6.39551218,11.5 3.875,8.92021696 3.875,5.75 C3.875,2.57978304 6.39551218,0 9.516,0 Z M9.516,2 C7.51061971,2 5.875,3.67408197 5.875,5.75 C5.875,7.82591803 7.51061971,9.5 9.516,9.5 C11.5211213,9.5 13.156,7.82617818 13.156,5.75 C13.156,3.67382182 11.5211213,2 9.516,2 Z" id="路径"></path>
                    </g>
                </g>
            </g>
        </g>
    </g>
</svg>