<?xml version="1.0" standalone="no"?><!DOCTYPE svg PUBLIC "-//W3C//DTD SVG 1.1//EN" "http://www.w3.org/Graphics/SVG/1.1/DTD/svg11.dtd"><svg t="1644574739182" class="icon" viewBox="0 0 1024 1024" version="1.1" xmlns="http://www.w3.org/2000/svg" p-id="14000" xmlns:xlink="http://www.w3.org/1999/xlink" width="200" height="200"><defs><style type="text/css"></style></defs><path d="M576 887.904c-35.04 14.368-73.376 21.536-115.04 21.536-109.76 0-200.64-38.272-272.704-114.816-72.064-76.512-108.096-173.024-108.096-289.504 0-117.216 33.024-212.992 99.136-287.264 66.08-74.304 151.36-111.456 255.904-111.456 38.08 0 68.48 3.2 91.296 9.504 22.752 6.368 50.944 19.232 84.544 38.656 16.416 9.696 28.736 14.56 36.96 14.56 6.72 0 13.056-5.984 19.04-17.92 9.696-20.896 17.536-31.36 23.52-31.36 5.984 0 8.96 2.976 8.96 8.96 0 2.976-0.736 7.84-2.24 14.56-8.224 35.84-12.32 103.04-12.32 201.6 0 14.176-1.12 22.4-3.36 24.64a12.096 12.096 0 0 1-8.96 3.36c-7.456 0-12.32-7.104-14.56-21.28-9.696-59.744-23.52-104.16-41.44-133.28-36.576-59.744-94.08-89.6-172.48-89.6-60.48 0-108.256 20.16-143.36 60.48-63.456 72.416-95.2 178.464-95.2 318.08 0 124.704 26.144 221.376 78.4 290.08 45.536 59.744 106.016 89.6 181.44 89.6A201.696 201.696 0 0 0 576 855.36v32.544z m217.536 8.096h-80v-9.952c5.248-1.6 9.056-3.04 11.36-4.256a16.64 16.64 0 0 0 5.76-5.088 26.144 26.144 0 0 0 3.68-10.048 117.76 117.76 0 0 0 1.312-20.64v-53.216a371.2 371.2 0 0 0-0.8-25.792 107.328 107.328 0 0 0-2.752-18.976 39.36 39.36 0 0 0-4.672-11.584 29.696 29.696 0 0 0-15.136-11.776 39.168 39.168 0 0 0-12.8-1.728c-5.28 0-10.272 1.056-15.04 3.136a61.44 61.44 0 0 0-15.616 10.88c-5.696 5.12-9.824 10.24-12.384 15.232-2.56 4.992-3.84 10.752-3.84 17.28v75.744c0 11.648 0.512 19.744 1.6 24.288 1.088 4.512 3.136 8 6.176 10.336 3.072 2.368 8.032 4.448 14.944 6.208V896h-79.616v-9.952c5.28-1.6 9.024-3.04 11.264-4.256a16.96 16.96 0 0 0 5.696-5.088 26.016 26.016 0 0 0 3.648-9.952c0.896-4.48 1.312-11.456 1.312-20.928v-88.544c0-8.672-0.128-15.68-0.384-20.928a31.68 31.68 0 0 0-2.88-12.704 15.456 15.456 0 0 0-7.392-7.104 58.624 58.624 0 0 0-14.112-3.968v-10.752l47.52-1.824h12.384l-2.24 33.088 2.88 0.832c10.016-10.176 18.08-17.408 24.256-21.76 6.176-4.32 12.384-7.68 18.688-10.048a56.32 56.32 0 0 1 20-3.52c7.328 0 13.856 0.832 19.616 2.496a42.784 42.784 0 0 1 26.112 20.928c2.816 5.216 4.96 11.488 6.4 18.784 1.408 7.328 2.112 16.608 2.112 27.84v76.576c0 9.344 0.288 16.128 0.8 20.32a26.112 26.112 0 0 0 2.88 9.76 16.64 16.64 0 0 0 5.856 5.76c2.56 1.6 7.04 3.232 13.44 4.992V896z m22.144-184.032c6.784-1.088 12.256-2.976 16.448-5.696a29.12 29.12 0 0 0 9.856-10.464c2.368-4.256 4.224-9.6 5.6-16.032 1.344-6.432 2.784-15.808 4.256-28.16h28.832v50.208h65.6v20.48h-65.6v90.4c0 13.12 0.544 23.616 1.632 31.392 1.088 7.808 3.136 13.888 6.08 18.272a27.2 27.2 0 0 0 10.176 9.472c3.808 1.888 8.64 2.816 14.624 2.816 5.44 0 10.496-1.088 15.232-3.328 4.736-2.24 9.408-5.44 14.016-9.664l9.152 10.976c-9.6 9.344-18.72 16.128-27.328 20.32a60.192 60.192 0 0 1-26.72 6.304c-17.472 0-30.464-5.184-38.976-15.552-8.544-10.368-12.8-26.56-12.8-48.64v-112.736h-30.08v-10.368z" fill="#5D6D7E" p-id="14001"></path></svg>