<?xml version="1.0" standalone="no"?><!DOCTYPE svg PUBLIC "-//W3C//DTD SVG 1.1//EN" "http://www.w3.org/Graphics/SVG/1.1/DTD/svg11.dtd"><svg t="1644574735307" class="icon" viewBox="0 0 1024 1024" version="1.1" xmlns="http://www.w3.org/2000/svg" p-id="13848" xmlns:xlink="http://www.w3.org/1999/xlink" width="200" height="200"><defs><style type="text/css"></style></defs><path d="M900.64 887.04c0 7.456-7.84 11.2-23.52 11.2h-12.32c-10.464 0-29.504-0.384-57.12-1.12A2536.224 2536.224 0 0 0 743.84 896c-22.4 0-48.544 0.384-78.4 1.12H597.12c-15.68 0-23.52-3.36-23.52-10.08 0-7.456 10.816-11.2 32.48-11.2 38.08 0 61.216-4.096 69.44-12.32 3.744-3.744 5.6-28.736 5.6-75.04V208.32c0 0.736-4.096 13.824-12.32 39.2-29.856 90.336-73.184 226.24-129.92 407.68l-52.64 178.08c-10.464 35.104-17.92 52.64-22.4 52.64-5.216 0-10.816-8.96-16.8-26.88-21.664-67.936-82.88-237.44-183.68-508.48L218.56 230.72c0.736 14.176 1.12 33.6 1.12 58.24v364c0 136.64 1.12 205.696 3.36 207.2 5.216 9.696 23.136 14.56 53.76 14.56 24.64 0 36.96 3.36 36.96 10.08 0 7.456-7.84 11.2-23.52 11.2-9.696 0-18.656-0.384-26.88-1.12a397.344 397.344 0 0 0-28-1.12l-128.8 3.36c-13.44 0-20.16-3.36-20.16-10.08 0-7.456 21.28-11.584 63.84-12.32 17.92 0 28.384-2.976 31.36-8.96 2.976-5.984 4.48-25.376 4.48-58.24V271.04c0-61.984-0.736-95.584-2.24-100.8a30.4 30.4 0 0 0-19.04-21.28c-9.696-3.744-30.624-6.72-62.72-8.96-11.936-0.736-17.92-4.096-17.92-10.08 0-8.224 10.816-12.32 32.48-12.32 2.976 0 9.344 0.384 19.04 1.12h58.24c44.064 0 75.04-0.384 92.96-1.12 3.744 9.696 25.76 68.32 66.08 175.84 17.184 44.8 65.344 175.456 144.48 392 14.176-48.544 28.736-96.32 43.68-143.36l118.72-370.72c6.72-21.664 12.704-39.584 17.92-53.76l168-1.12c24.64 0 38.816 1.12 42.56 3.36 3.744 2.24 5.6 5.6 5.6 10.08 0 7.456-6.336 11.2-19.04 11.2-20.896 0-35.104 0.736-42.56 2.24-17.92 2.976-30.24 8.96-36.96 17.92-3.744 5.216-5.6 48.896-5.6 131.04V813.12c0 29.856 2.976 47.424 8.96 52.64 9.696 6.72 33.984 10.08 72.8 10.08h6.72c14.944 0 22.4 3.744 22.4 11.2z" fill="#5D6D7E" p-id="13849"></path></svg>