<svg 
 xmlns="http://www.w3.org/2000/svg"
 xmlns:xlink="http://www.w3.org/1999/xlink"
 width="21px" height="25px">
<path fill-rule="evenodd"  fill="#1890FF"
 d="M20.527,18.550 C20.475,18.616 20.411,18.673 20.339,18.716 L19.153,19.429 L14.148,22.437 L11.025,24.314 C10.814,24.441 10.533,24.441 10.321,24.314 L7.995,22.916 L2.851,19.824 L1.226,18.847 C0.996,18.709 0.768,18.593 0.687,18.299 C0.648,18.156 0.663,17.991 0.663,17.844 L0.663,7.027 C0.663,6.733 0.758,6.465 1.031,6.300 L2.194,5.602 L7.199,2.593 L10.321,0.716 C10.532,0.589 10.814,0.589 11.025,0.716 C12.501,1.603 13.976,2.490 15.452,3.377 L19.919,6.062 L20.312,6.298 C20.582,6.461 20.684,6.727 20.684,7.020 L20.684,18.114 C20.684,18.278 20.625,18.430 20.527,18.550 ZM18.836,7.585 L18.040,7.107 L13.298,4.256 L10.673,2.678 L9.883,3.153 L5.142,6.003 L2.511,7.585 L2.511,17.445 L3.307,17.924 C4.888,18.874 6.468,19.824 8.048,20.774 L10.673,22.352 L11.463,21.877 L16.205,19.027 C17.082,18.500 17.959,17.972 18.836,17.445 L18.836,7.585 ZM15.164,12.932 L9.707,18.595 L9.702,18.596 C9.598,18.629 9.499,18.645 9.408,18.645 C9.034,18.645 8.903,18.367 8.901,18.364 C8.733,18.009 8.894,17.570 8.901,17.551 L8.903,17.548 L11.712,13.283 L6.938,13.283 C6.599,13.273 6.360,13.169 6.227,12.973 C5.992,12.627 6.171,12.125 6.179,12.104 L6.182,12.098 L11.640,6.435 L11.644,6.434 C11.749,6.401 11.848,6.385 11.939,6.385 C12.313,6.385 12.444,6.663 12.445,6.666 C12.614,7.022 12.453,7.460 12.446,7.479 L12.444,7.482 L9.635,11.747 L14.408,11.747 C14.747,11.757 14.987,11.861 15.119,12.057 C15.354,12.403 15.175,12.905 15.168,12.926 L15.164,12.932 Z"/>
</svg>