<svg 
 xmlns="http://www.w3.org/2000/svg"
 xmlns:xlink="http://www.w3.org/1999/xlink"
 width="25px" height="20px">
<path fill-rule="evenodd"  fill="#1890FF"
 d="M3.854,19.980 L0.790,19.980 C0.587,19.980 0.392,19.899 0.248,19.755 C0.105,19.610 0.024,19.415 0.025,19.212 L0.025,8.449 C0.024,8.246 0.104,8.050 0.248,7.906 C0.392,7.762 0.587,7.680 0.790,7.680 L3.854,7.680 C4.057,7.680 4.253,7.762 4.396,7.906 C4.540,8.050 4.620,8.246 4.620,8.449 L4.620,19.212 C4.620,19.415 4.540,19.610 4.396,19.754 C4.253,19.899 4.057,19.980 3.854,19.980 L3.854,19.980 ZM1.556,18.443 L3.088,18.443 L3.088,9.218 L1.556,9.218 L1.556,18.443 ZM24.237,14.126 C24.036,13.650 23.662,13.164 23.000,12.943 L23.000,0.762 C23.001,0.558 22.921,0.363 22.777,0.219 C22.633,0.074 22.438,-0.007 22.235,-0.007 L6.917,-0.007 C6.714,-0.007 6.519,0.074 6.375,0.219 C6.232,0.363 6.151,0.558 6.152,0.762 L6.152,10.292 C5.437,10.506 4.752,10.810 4.114,11.197 C3.876,11.340 3.734,11.601 3.742,11.878 C3.751,12.156 3.908,12.408 4.154,12.537 C4.400,12.665 4.697,12.652 4.930,12.500 C6.123,11.753 7.956,11.247 8.784,11.680 C8.877,11.729 9.012,11.903 9.141,12.072 C9.667,12.757 10.463,13.793 12.860,13.460 C13.867,13.321 14.616,13.497 15.013,13.974 C15.185,14.178 15.285,14.432 15.298,14.698 C15.198,14.740 15.090,14.785 14.978,14.832 C14.505,15.030 13.522,15.446 13.189,15.357 C12.605,15.200 9.599,14.350 8.414,14.017 C8.007,13.906 7.586,14.144 7.472,14.551 C7.357,14.958 7.592,15.380 7.998,15.498 C9.186,15.832 12.202,16.685 12.788,16.842 C12.949,16.884 13.114,16.905 13.279,16.903 C14.023,16.903 14.870,16.547 15.576,16.249 C15.770,16.167 15.948,16.092 16.099,16.037 C16.306,15.957 16.481,15.813 16.597,15.624 C17.839,15.472 19.055,15.143 20.234,14.812 C20.682,14.686 21.127,14.562 21.570,14.448 C22.593,14.188 22.723,14.497 22.818,14.725 C22.885,14.873 22.938,15.028 22.978,15.186 C20.974,16.351 14.999,18.442 13.603,18.442 C12.008,18.442 6.203,16.623 4.102,15.922 C3.841,15.834 3.553,15.892 3.346,16.074 C3.140,16.256 3.047,16.535 3.102,16.805 C3.157,17.075 3.353,17.294 3.614,17.380 C4.412,17.647 11.470,19.980 13.603,19.980 C15.465,19.980 22.106,17.576 24.004,16.362 C24.620,15.968 24.697,15.216 24.237,14.126 L24.237,14.126 ZM16.108,1.530 L16.108,5.825 L15.117,4.831 C14.974,4.686 14.779,4.605 14.576,4.605 C14.373,4.605 14.178,4.686 14.035,4.831 L13.044,5.825 L13.044,1.530 L16.108,1.530 ZM21.469,12.907 C21.374,12.925 21.288,12.933 21.187,12.958 C20.734,13.074 20.277,13.202 19.818,13.331 C18.806,13.615 17.767,13.899 16.745,14.055 C16.410,12.796 15.169,11.590 12.649,11.937 C11.138,12.147 10.778,11.677 10.362,11.135 C10.141,10.849 9.892,10.523 9.497,10.317 C8.968,10.041 8.336,9.968 7.683,10.008 L7.683,1.530 L11.513,1.530 L11.513,7.680 C11.511,7.991 11.698,8.271 11.984,8.390 C12.271,8.509 12.601,8.444 12.820,8.224 L14.576,6.461 L16.332,8.224 C16.551,8.444 16.882,8.509 17.168,8.390 C17.455,8.271 17.641,7.991 17.640,7.680 L17.640,1.530 L21.469,1.530 L21.469,12.907 L21.469,12.907 Z"/>
</svg>