<?xml version="1.0" encoding="UTF-8"?>
<svg width="25px" height="22px" viewBox="0 0 25 22" version="1.1" xmlns="http://www.w3.org/2000/svg" xmlns:xlink="http://www.w3.org/1999/xlink">
    <!-- Generator: Sketch 59.1 (86144) - https://sketch.com -->
    <title>编组</title>
    <desc>Created with Sketch.</desc>
    <g id="侧边菜单" stroke="none" stroke-width="1"  fill-rule="evenodd" >
        <g transform="translate(-26.000000, -338.000000)"  fill-rule="nonzero" id="左边导航">
            <g>
                <g id="left">
                    <g id="编组" transform="translate(0.000000, 63.000000)">
                        <g id="5" transform="translate(0.000000, 256.000000)">
                            <g id="编组" transform="translate(26.000000, 19.000000)">
                                <path d="M20.5128105,3.84354562 L13.4481193,3.84354562 L13.4481193,1.49083853 C13.4481193,0.667546792 12.7784425,0 11.9524196,0 L1.49572983,0 C0.669736953,0 0,0.667546792 0,1.49083853 L0,17.3208196 C0,18.1441113 0.669736953,18.9913638 1.49572983,18.9913638 L2.970642,18.9913638 C3.40317043,20.6605003 4.92393127,21.8934911 6.73370547,21.8934911 C8.54347967,21.8934911 10.0642405,20.6605303 10.4967689,18.9913638 L14.5195843,18.9913638 C14.9521428,20.6605003 16.4729036,21.8934911 18.2826477,21.8934911 C20.0923919,21.8934911 21.6131828,20.6605303 22.0457112,18.9913638 L25,18.9913638 L25,9.84355969 C25,7.37290576 22.9908492,3.84354562 20.5128105,3.84354562 Z M6.87105185,20.0964041 C5.73149539,20.0964041 4.80769231,19.175622 4.80769231,18.0397921 C4.80769231,16.9039622 5.73149539,15.9831801 6.87105185,15.9831801 C8.01060832,15.9831801 8.9344114,16.9039622 8.9344114,18.0397921 C8.9344114,19.175622 8.01060832,20.0964041 6.87105185,20.0964041 L6.87105185,20.0964041 Z M11.5317305,17.1111629 L10.5122142,17.1111629 C10.1019523,15.4102484 8.65384615,14.4230769 6.73076923,14.4230769 C4.80769231,14.4230769 3.36539857,15.4102484 2.9551366,17.1111629 L1.91641888,17.1111629 L1.91641888,1.88020089 L11.5317305,1.88020089 L11.5317305,17.1111629 Z M18.2625749,20.0964041 C17.1230184,20.0964041 16.1992153,19.175622 16.1992153,18.0397921 C16.1992153,16.9039622 17.1230184,15.9831801 18.2625749,15.9831801 C19.4021313,15.9831801 20.3259344,16.9039622 20.3259344,18.0397921 C20.3259344,19.175622 19.4021313,20.0964041 18.2625749,20.0964041 L18.2625749,20.0964041 Z M23.0835811,17.1111629 L22.0611866,17.1111629 C21.6509546,15.4102484 20.1149889,14.1461985 18.2826477,14.1461985 C16.4503066,14.1461985 14.9143108,15.4102484 14.5040789,17.1111629 L13.4481193,17.1111629 L13.4481193,5.69379556 L20.1856647,5.69379556 C21.9094433,5.69379556 22.5482936,7.30558536 23.043483,8.52717212 L23.0835811,8.52643419 L23.0835811,17.1111629 Z" id="形状"></path>
                                <path d="M15.836682,11.5384615 L23.5863949,11.5384615 C23.8360644,11.5384615 24.0384615,11.1079661 24.0384615,10.5769231 C24.0384615,10.04588 23.8360644,9.61538462 23.5863949,9.61538462 L15.836682,9.61538462 C15.5870125,9.61538462 15.3846154,10.04588 15.3846154,10.5769231 C15.3846154,11.1079661 15.5870125,11.5384615 15.836682,11.5384615 Z" id="路径"></path>
                            </g>
                        </g>
                    </g>
                </g>
            </g>
        </g>
    </g>
</svg>