<?xml version="1.0" encoding="UTF-8"?>
<svg width="27px" height="23px" viewBox="0 0 27 23" version="1.1" xmlns="http://www.w3.org/2000/svg" xmlns:xlink="http://www.w3.org/1999/xlink">
    <!-- Generator: Sketch 59.1 (86144) - https://sketch.com -->
    <title>首页icon</title>
    <desc>Created with Sketch.</desc>
    <g id="发货单" stroke="none" stroke-width="1" fill="none" fill-rule="evenodd" stroke-linecap="round">
        <g id="弹出菜单" transform="translate(-30.000000, -86.000000)" stroke="#1890FF" stroke-width="2">
            <g id="编组-7" transform="translate(27.000000, 86.000000)">
                <g id="首页icon" transform="translate(4.000000, 0.000000)">
                    <path d="M21.761,7.526 L21.761,17.986 C21.761,19.912 20.052,21.472 17.945,21.472 L7.259,21.472 C5.151,21.472 3.442,19.912 3.442,17.986 L3.442,7.526" id="路径"></path>
                    <path d="M8.855,20.457 L8.855,12.273 C8.855,10.872 9.817,9.736 11.003,9.736 L14.225,9.736 C15.411,9.736 16.372,10.872 16.372,12.273 L16.372,20.457" id="路径"></path>
                    <path d="M0.608,8.915 L10.3669441,1.75913664 C11.7909833,0.714942718 13.7312465,0.728079556 15.1410161,1.7914602 L24.585,8.915 L24.585,8.915" id="路径"></path>
                </g>
            </g>
        </g>
    </g>
</svg>