<?xml version="1.0" encoding="UTF-8"?>
<svg width="27px" height="23px" viewBox="0 0 27 23" version="1.1" xmlns="http://www.w3.org/2000/svg" xmlns:xlink="http://www.w3.org/1999/xlink">
    <!-- Generator: Sketch 59.1 (86144) - https://sketch.com -->
    <title>首页icon</title>
    <desc>Created with Sketch.</desc>
    <g id="侧边菜单" fill-rule="evenodd" >
        <g transform="translate(-23.000000, -81.000000)"  fill-rule="nonzero" id="左边导航">
            <g>
                <g id="left">
                    <g id="编组" transform="translate(0.000000, 63.000000)">
                        <g id="1">
                            <g id="首页icon" transform="translate(24.000000, 18.000000)">
                                <path d="M20.761,7.526 L20.761,17.986 C20.761,19.338039 19.5193959,20.472 17.945,20.472 L7.259,20.472 C5.68372263,20.472 4.442,19.338136 4.442,17.986 L4.442,7.526 C4.442,6.97371525 3.99428475,6.526 3.442,6.526 C2.88971525,6.526 2.442,6.97371525 2.442,7.526 L2.442,17.986 C2.442,20.4853113 4.61767213,22.472 7.259,22.472 L17.945,22.472 C20.5855185,22.472 22.761,20.4851259 22.761,17.986 L22.761,7.526 C22.761,6.97371525 22.3132847,6.526 21.761,6.526 C21.2087153,6.526 20.761,6.97371525 20.761,7.526 Z" id="路径"></path>
                                <path d="M9.855,20.457 L9.855,12.273 C9.855,11.390906 10.4095215,10.736 11.003,10.736 L14.225,10.736 C14.8181215,10.736 15.372,11.3905674 15.372,12.273 L15.372,20.457 C15.372,21.0092847 15.8197153,21.457 16.372,21.457 C16.9242847,21.457 17.372,21.0092847 17.372,20.457 L17.372,12.273 C17.372,10.3531317 16.0036239,8.736 14.225,8.736 L11.003,8.736 C9.22435159,8.736 7.855,10.3532439 7.855,12.273 L7.855,20.457 C7.855,21.0092847 8.30271525,21.457 8.855,21.457 C9.40728475,21.457 9.855,21.0092847 9.855,20.457 Z" id="路径"></path>
                                <path d="M1.19932628,9.72143241 L10.9582704,2.56556905 C12.0262998,1.78242361 13.4814972,1.79227624 14.5388243,2.58981172 L23.9828083,9.71335152 C24.4237257,10.0459328 25.0507702,9.95810908 25.3833515,9.51719171 C25.7159328,9.07627434 25.6281091,8.44922978 25.1871917,8.11664848 L15.7432078,0.993108684 C13.9809958,-0.336117125 11.5556669,-0.352538172 9.77561782,0.952704235 L0.0166737192,8.10856759 C-0.428706602,8.43514808 -0.525012896,9.06094596 -0.198432409,9.50632628 C0.128148079,9.9517066 0.75394596,10.0480129 1.19932628,9.72143241 Z" id="路径"></path>
                            </g>
                        </g>
                    </g>
                </g>
            </g>
        </g>
    </g>
</svg>