<svg 
 xmlns="http://www.w3.org/2000/svg"
 xmlns:xlink="http://www.w3.org/1999/xlink"
 width="21px" height="21px">
<path fill-rule="evenodd" 
 d="M2.426,11.416 C1.434,10.926 0.759,9.958 0.759,8.844 L0.759,6.494 C0.759,6.126 0.860,5.764 1.052,5.444 L2.963,1.256 C3.366,0.584 4.131,0.167 4.961,0.167 L16.558,0.167 C17.388,0.167 18.153,0.584 18.557,1.256 L20.468,5.444 C20.660,5.764 20.761,6.126 20.761,6.494 L20.761,8.844 C20.761,10.453 19.353,11.756 17.618,11.756 C16.717,11.756 15.905,11.405 15.332,10.843 C14.759,11.405 13.946,11.756 13.046,11.756 C12.145,11.756 11.333,11.405 10.760,10.843 C10.187,11.405 9.375,11.756 8.474,11.756 C7.573,11.756 6.761,11.405 6.188,10.843 C5.656,11.366 4.917,11.706 4.093,11.751 L4.093,17.522 C4.093,18.107 4.590,18.581 5.204,18.581 L16.316,18.581 C16.930,18.581 17.427,18.107 17.427,17.522 L17.427,13.610 C17.427,13.171 17.800,12.816 18.260,12.816 C18.721,12.816 19.094,13.171 19.094,13.610 L19.094,18.051 C19.094,19.221 18.099,20.169 16.872,20.169 L4.648,20.169 C3.421,20.169 2.426,19.221 2.426,18.051 L2.426,11.416 L2.426,11.416 ZM18.491,5.932 L3.029,5.932 C2.722,5.932 2.473,6.169 2.473,6.461 L2.473,8.844 C2.473,9.210 2.633,9.541 2.892,9.780 C3.151,10.020 3.508,10.168 3.902,10.168 C4.297,10.168 4.654,10.020 4.912,9.780 C5.171,9.541 5.331,9.210 5.331,8.844 C5.331,8.406 5.715,8.050 6.188,8.050 C6.661,8.050 7.045,8.406 7.045,8.844 C7.045,9.210 7.205,9.541 7.464,9.780 C7.722,10.020 8.080,10.168 8.474,10.168 C8.868,10.168 9.226,10.020 9.484,9.780 C9.743,9.541 9.903,9.210 9.903,8.844 C9.903,8.406 10.286,8.050 10.760,8.050 C11.233,8.050 11.617,8.406 11.617,8.844 C11.617,9.210 11.777,9.541 12.036,9.780 C12.294,10.020 12.651,10.168 13.046,10.168 C13.440,10.168 13.797,10.020 14.056,9.780 C14.315,9.541 14.474,9.210 14.474,8.844 C14.474,8.406 14.858,8.050 15.332,8.050 C15.805,8.050 16.189,8.406 16.189,8.844 C16.189,9.210 16.349,9.541 16.607,9.780 C16.866,10.020 17.223,10.168 17.618,10.168 C18.012,10.168 18.369,10.020 18.628,9.780 C18.886,9.541 19.046,9.210 19.046,8.844 L19.046,6.461 C19.046,6.169 18.798,5.932 18.491,5.932 L18.491,5.932 ZM5.331,5.932 L7.045,5.932 L5.331,5.932 ZM11.617,5.932 L9.903,5.932 L11.617,5.932 ZM16.189,5.932 L14.474,5.932 L16.189,5.932 ZM17.799,4.264 L17.221,2.300 C17.020,1.964 16.637,1.755 16.222,1.755 L5.298,1.755 C4.883,1.755 4.500,1.964 4.299,2.300 L3.720,4.264 C3.710,4.281 3.710,4.301 3.720,4.317 C3.730,4.333 3.749,4.344 3.768,4.344 L17.751,4.344 C17.771,4.344 17.789,4.333 17.799,4.317 C17.809,4.301 17.809,4.281 17.799,4.264 L17.799,4.264 Z"/>
</svg>