<?xml version="1.0" encoding="UTF-8"?>
<svg width="23px" height="24px" viewBox="0 0 23 24" version="1.1" xmlns="http://www.w3.org/2000/svg" xmlns:xlink="http://www.w3.org/1999/xlink">
    <!-- Generator: Sketch 59.1 (86144) - https://sketch.com -->
    <title>订单icon</title>
    <desc>Created with Sketch.</desc>
    <g id="侧边菜单" stroke="none" stroke-width="1"  fill-rule="evenodd" >
        <g transform="translate(-26.000000, -146.000000)" fill-rule="nonzero" id="左边导航">
            <g>
                <g id="left">
                    <g id="编组" transform="translate(0.000000, 63.000000)">
                        <g id="2" transform="translate(0.000000, 64.000000)">
                            <g id="订单icon" transform="translate(26.000000, 19.000000)">
                                <path d="M17.6096364,0.522727273 C20.4964341,0.522727273 22.8369091,2.86320231 22.8369091,5.75 L22.8369091,18.7199091 C22.8369091,21.6067068 20.4964341,23.9471818 17.6096364,23.9471818 L5.71759091,23.9471818 C2.83079322,23.9471818 0.490318182,21.6067068 0.490318182,18.7199091 L0.490318182,5.75 C0.490318182,2.86320231 2.83079322,0.522727273 5.71759091,0.522727273 L17.6096364,0.522727273 Z M17.6096364,2.61363636 L5.71759091,2.61363636 C3.98557042,2.61363636 2.58122727,4.01797951 2.58122727,5.75 L2.58122727,18.7199091 C2.58122727,20.4519296 3.98557042,21.8562727 5.71759091,21.8562727 L17.6096364,21.8562727 C19.3416569,21.8562727 20.746,20.4519296 20.746,18.7199091 L20.746,5.75 C20.746,4.01797951 19.3416569,2.61363636 17.6096364,2.61363636 Z" id="路径"></path>
                                <path d="M7.01709091,9.73318182 L11.5250909,9.73318182 C12.1024795,9.73318182 12.5705455,9.26511587 12.5705455,8.68772727 C12.5705455,8.11033867 12.1024795,7.64227273 11.5250909,7.64227273 L7.01709091,7.64227273 C6.43970231,7.64227273 5.97163636,8.11033867 5.97163636,8.68772727 C5.97163636,9.26511587 6.43970231,9.73318182 7.01709091,9.73318182 Z" id="路径"></path>
                                <path d="M7.31295455,15.6577727 L14.8067727,15.6577727 C15.3841613,15.6577727 15.8522273,15.1897068 15.8522273,14.6123182 C15.8522273,14.0349296 15.3841613,13.5668636 14.8067727,13.5668636 L7.31295455,13.5668636 C6.73556594,13.5668636 6.2675,14.0349296 6.2675,14.6123182 C6.2675,15.1897068 6.73556594,15.6577727 7.31295455,15.6577727 Z" id="路径"></path>
                            </g>
                        </g>
                    </g>
                </g>
            </g>
        </g>
    </g>
</svg>