<?xml version="1.0" encoding="UTF-8"?>
<svg width="21px" height="27px" viewBox="0 0 21 27" version="1.1" xmlns="http://www.w3.org/2000/svg" xmlns:xlink="http://www.w3.org/1999/xlink">
    <!-- Generator: Sketch 59.1 (86144) - https://sketch.com -->
    <title>编组</title>
    <desc>Created with Sketch.</desc>
    <g id="侧边菜单" stroke="none" stroke-width="1" fill-rule="evenodd" >
        <g transform="translate(-28.000000, -401.000000)"  fill-rule="nonzero" id="左边导航">
            <g>
                <g id="left">
                    <g id="编组" transform="translate(0.000000, 63.000000)">
                        <g id="5备份" transform="translate(0.000000, 320.000000)">
                            <g id="编组" transform="translate(28.000000, 18.000000)">
                                <path d="M10.5,0 C4.70859373,0 0,4.60888236 0,10.2776471 C0,13.9904471 1.99499999,17.3467412 5.24999998,19.1774471 L5.24999998,20.8764706 C5.24999998,21.4096235 5.68968747,21.84 6.23437499,21.84 L14.765625,21.84 C15.3103125,21.84 15.75,21.4096235 15.75,20.8764706 L15.75,19.1774471 C19.005,17.3467412 21,13.990447 21,10.2776471 C21,4.60888236 16.288125,0 10.5,0 L10.5,0 Z M14.3259375,17.7417882 C14.0634375,17.8702588 13.88625,18.0950823 13.820625,18.3520235 C13.8140625,18.3777176 13.8075,18.4034118 13.8009375,18.4323176 C13.794375,18.4644353 13.7910938,18.4965529 13.7878125,18.5286706 C13.7845312,18.5607882 13.78125,18.5961176 13.78125,18.6282353 L13.78125,19.9129412 L7.21874999,19.9129412 L7.21874999,18.6282353 C7.21874999,18.5961176 7.21546873,18.5607882 7.2121875,18.5286706 C7.20890627,18.4965529 7.20562501,18.4644353 7.19906249,18.4323176 C7.14984374,18.1432588 6.96281249,17.8831059 6.67406251,17.7417882 C3.77343748,16.3189765 1.96875,13.4605059 1.96875,10.2776471 C1.96875,5.67197649 5.7946875,1.92705882 10.5,1.92705882 C15.2053125,1.92705882 19.03125,5.67197646 19.03125,10.2776471 C19.03125,13.4605059 17.2265625,16.3189765 14.3259375,17.7417882 Z" id="形状"></path>
                                <path d="M12.88098,16.1579778 C12.4308629,16.1587343 12.0381108,15.8501968 11.9287229,15.409904 C11.8193351,14.9696111 12.0214421,14.5107905 12.4187467,14.2974588 C13.9102055,13.4971903 14.8415878,11.9318841 14.84,10.2282353 C14.84,9.68244801 15.2787609,9.24 15.82,9.24 C16.3612391,9.24 16.8,9.68244801 16.8,10.2282353 C16.8,12.6658823 15.4747133,14.8933647 13.3412534,16.0410353 C13.1997822,16.1178053 13.0416346,16.1579778 12.88098,16.1579778 L12.88098,16.1579778 Z M14.5133334,26.04 L6.02,26.04 C5.47876095,26.04 5.04,25.597552 5.04,25.0517647 C5.04,24.5059774 5.47876095,24.0635294 6.02,24.0635294 L14.5133334,24.0635294 C15.0545724,24.0635294 15.4933334,24.5059774 15.4933334,25.0517647 C15.4933334,25.597552 15.0545724,26.04 14.5133334,26.04 Z" id="形状"></path>
                            </g>
                        </g>
                    </g>
                </g>
            </g>
        </g>
    </g>
</svg>