<?xml version="1.0" encoding="UTF-8"?>
<svg width="25px" height="25px" viewBox="0 0 25 25" version="1.1" xmlns="http://www.w3.org/2000/svg" xmlns:xlink="http://www.w3.org/1999/xlink">
    <!-- Generator: Sketch 59.1 (86144) - https://sketch.com -->
    <title>基础icon</title>
    <desc>Created with Sketch.</desc>
    <g id="发货单" stroke="none" stroke-width="1" fill="none" fill-rule="evenodd">
        <g id="弹出菜单" transform="translate(-30.000000, -415.000000)" stroke="#1890FF" stroke-width="2">
            <g id="编组-7" transform="translate(27.000000, 86.000000)">
                <g id="基础icon" transform="translate(4.000000, 330.000000)">
                    <path d="M22.1926687,9.018 L19.9316687,10.427 L19.9316687,12.118 L22.1926687,13.527 C22.4756687,13.668 22.6166687,14.091 22.4756687,14.514 L19.6486687,19.446 C19.5076687,19.728 19.0836687,19.869 18.6596687,19.728 L16.3986687,18.318 C15.9746687,18.6 15.4096687,19.023 14.8446687,19.164 L14.8446687,21.841 C14.8446687,22.264 14.5616687,22.546 14.1376687,22.546 L8.48466866,22.546 C8.06066866,22.546 7.77866866,22.264 7.77866866,21.841 L7.77866866,19.164 C7.21266866,18.882 6.64766866,18.6 6.22366866,18.318 L3.96266866,19.728 C3.67966866,19.869 3.25566866,19.869 2.97366866,19.446 L0.146668664,14.514 C-0.135331336,14.091 0.00566866425,13.668 0.429668664,13.527 L2.69066866,12.118 L2.69066866,10.427 L0.429668664,9.018 C0.00566866425,8.877 -0.135331336,8.454 0.146668664,8.032 L2.97366866,3.1 C3.11466866,2.818 3.53866866,2.677 3.96266866,2.959 L6.22366866,4.368 C6.64766866,4.086 7.21266866,3.663 7.77866866,3.522 L7.77866866,0.704 C7.77866866,0.281 8.06066866,-3.55271368e-15 8.48466866,-3.55271368e-15 L14.1376687,-3.55271368e-15 C14.5616687,-3.55271368e-15 14.8446687,0.281 14.8446687,0.704 L14.8446687,3.381 C15.4096687,3.663 15.9746687,3.945 16.3986687,4.227 L18.6596687,2.818 C18.9426687,2.677 19.3666687,2.677 19.6486687,3.1 L22.4756687,8.032 C22.7576687,8.454 22.6166687,8.877 22.1926687,9.018 Z M11.3086687,9.233 C10.1696687,9.233 9.24666866,10.15 9.24666866,11.28 C9.24666866,12.411 10.1696687,13.327 11.3086687,13.327 C12.4476687,13.327 13.3716687,12.411 13.3716687,11.28 C13.3716687,10.15 12.4476687,9.233 11.3086687,9.233 Z" id="形状"></path>
                </g>
            </g>
        </g>
    </g>
</svg>