<?xml version="1.0" encoding="UTF-8"?>
<svg width="25px" height="25px" viewBox="0 0 25 25" version="1.1" xmlns="http://www.w3.org/2000/svg" xmlns:xlink="http://www.w3.org/1999/xlink">
    <!-- Generator: Sketch 59.1 (86144) - https://sketch.com -->
    <title>基础icon</title>
    <desc>Created with Sketch.</desc>
    <g id="侧边菜单" stroke="none" stroke-width="1"  fill-rule="evenodd" >
        <g transform="translate(-26.000000, -465.000000)"  fill-rule="nonzero" id="左边导航">
            <g>
                <g id="left">
                    <g id="编组" transform="translate(0.000000, 63.000000)">
                        <g id="5备份-2" transform="translate(0.000000, 384.000000)">
                            <g id="基础icon" transform="translate(25.000000, 18.000000)">
                                <path d="M16.1376687,0 C17.1131099,0 17.8446687,0.727863982 17.8446687,1.704 L17.8446687,3.76492549 L18.0502683,3.87149992 L18.3904521,4.05502014 L20.2137206,2.92294115 C20.9859805,2.53817564 21.9356576,2.7277078 22.5162507,3.60270592 L25.3071122,8.47639079 C25.9144256,9.38520731 25.6129443,10.5099271 24.6399661,10.9175369 L22.9316687,11.9821061 L22.9316687,12.5640444 L24.6386167,13.6319412 C25.418765,14.0206369 25.7074947,14.9807995 25.424352,15.8302278 L25.3432507,16.0112941 L22.4686044,21.0255041 C22.0411821,21.703692 21.1434548,21.9427259 20.3441124,21.6769069 L20.2313484,21.6394075 L18.4180986,20.5086325 C18.2157389,20.6391705 18.0275202,20.7504844 17.8446687,20.8439185 L17.8446687,22.841 C17.8446687,23.8168941 17.1133466,24.546 16.1376687,24.546 L10.4846687,24.546 C9.50875334,24.546 8.77866866,23.8166543 8.77866866,22.841 L8.77866866,20.7802387 L8.62395212,20.7006402 L8.23100548,20.4907482 L6.40861671,21.6230588 C5.63635684,22.0078244 4.6866797,21.8182922 4.10608663,20.9432941 L1.31461837,16.0687002 C0.70830827,15.159235 1.00944215,14.0350174 1.98238048,13.6274574 L3.69066866,12.5628939 L3.69066866,11.9821061 L1.98239783,10.9175535 C1.0093354,10.5100524 0.706389001,9.38766369 1.27908663,8.53470592 L4.07924147,3.6527864 C4.49678232,2.81770472 5.53643221,2.57262866 6.36294473,3.03191717 L8.20407341,4.17750699 C8.40679932,4.04675745 8.59539799,3.93527735 8.77866866,3.8417289 L8.77866866,1.704 C8.77866866,0.728105206 9.50899145,0 10.4846687,0 L16.1376687,0 Z M15.8446687,2 L10.7786687,2 L10.7786687,5.3034459 L10.0203974,5.49234386 C9.85461453,5.53364313 9.64767471,5.63354164 9.37765753,5.80154813 L9.237291,5.89127106 L8.24128706,6.55726107 L5.64520922,4.93898512 L3.14974886,9.28845468 L5.69066866,10.8718939 L5.69066866,13.6731061 L3.15111042,15.2556968 L5.70278531,19.7115522 L8.24109945,18.1286142 L8.77746216,18.485346 C9.00687631,18.637928 9.25594465,18.7780803 9.7038272,19.0068668 L10.7786687,19.5449882 L10.7786687,22.546 L15.8446687,22.546 L15.8446687,19.3828883 L16.6025371,19.1937566 C16.7678811,19.1524937 16.9746459,19.052582 17.2446346,18.8845318 L17.3849986,18.7947845 L18.3812379,18.1286142 L20.9176883,19.7103899 L23.471132,15.2556377 L20.9316687,13.6731061 L20.9316687,10.8718939 L23.4708049,9.28956618 L20.9195018,4.83436007 L18.3810503,6.41626107 L17.8448752,6.05965405 C17.700547,5.96366218 17.5262119,5.86080428 17.3085085,5.74257112 L16.9477572,5.5526263 L15.8446687,4.99952346 L15.8446687,2 Z M13.3086687,9.233 C14.9981726,9.233 16.3716687,10.5959201 16.3716687,12.28 C16.3716687,13.9648108 14.9984458,15.327 13.3086687,15.327 C11.6189337,15.327 10.2466687,13.9648488 10.2466687,12.28 C10.2466687,10.5958819 11.6192066,9.233 13.3086687,9.233 Z M13.3086687,11.233 C12.7206276,11.233 12.2466687,11.7036246 12.2466687,12.28 C12.2466687,12.8569539 12.7202048,13.327 13.3086687,13.327 C13.897472,13.327 14.3716687,12.8566134 14.3716687,12.28 C14.3716687,11.7039651 13.897049,11.233 13.3086687,11.233 Z" id="形状"></path>
                            </g>
                        </g>
                    </g>
                </g>
            </g>
        </g>
    </g>
</svg>