<?xml version="1.0" encoding="UTF-8"?>
<svg width="27px" height="24px" viewBox="0 0 27 24" version="1.1" xmlns="http://www.w3.org/2000/svg" xmlns:xlink="http://www.w3.org/1999/xlink">
    <!-- Generator: Sketch 59.1 (86144) - https://sketch.com -->
    <title>库存icon</title>
    <desc>Created with Sketch.</desc>
    <g id="发货单" stroke="none" stroke-width="1" fill="none" fill-rule="evenodd">
        <g id="弹出菜单" transform="translate(-29.000000, -332.000000)" stroke="#1890FF" stroke-width="2">
            <g id="编组-7" transform="translate(27.000000, 86.000000)">
                <g id="库存icon" transform="translate(3.000000, 246.000000)">
                    <path d="M21.607,7.616 L21.607,19.15 C21.607,21.075 19.898,22.636 17.79,22.636 L7.104,22.636 C4.996,22.636 3.288,21.075 3.288,19.15 L3.288,7.616" id="路径"></path>
                    <path d="M8.594,9.812 L9.844,9.812 C10.396,9.812 10.844,10.26 10.844,10.812 L10.844,12.062 C10.844,12.615 10.396,13.062 9.844,13.062 L8.594,13.062 C8.041,13.062 7.594,12.615 7.594,12.062 L7.594,10.812 C7.594,10.26 8.041,9.812 8.594,9.812 Z" id="路径"></path>
                    <path d="M8.594,16.125 L9.844,16.125 C10.396,16.125 10.844,16.573 10.844,17.125 L10.844,18.344 C10.844,18.896 10.396,19.344 9.844,19.344 L8.594,19.344 C8.041,19.344 7.594,18.896 7.594,18.344 L7.594,17.125 C7.594,16.573 8.041,16.125 8.594,16.125 Z" id="路径"></path>
                    <path d="M14.906,16.125 L16.156,16.125 C16.708,16.125 17.156,16.573 17.156,17.125 L17.156,18.344 C17.156,18.896 16.708,19.344 16.156,19.344 L14.906,19.344 C14.354,19.344 13.906,18.896 13.906,18.344 L13.906,17.125 C13.906,16.573 14.354,16.125 14.906,16.125 Z" id="路径"></path>
                    <path d="M0.454,9.005 L10.2119149,1.8493028 C11.6359599,0.805018696 13.5762974,0.818117982 14.9861133,1.88153358 L24.43,9.005 L24.43,9.005" id="路径" stroke-linecap="round"></path>
                </g>
            </g>
        </g>
    </g>
</svg>