<?xml version="1.0" encoding="UTF-8"?>
<svg width="27px" height="24px" viewBox="0 0 27 24" version="1.1" xmlns="http://www.w3.org/2000/svg" xmlns:xlink="http://www.w3.org/1999/xlink">
    <!-- Generator: Sketch 59.1 (86144) - https://sketch.com -->
    <title>库存icon</title>
    <desc>Created with Sketch.</desc>
    <g id="侧边菜单" stroke="none" stroke-width="1"  fill-rule="evenodd" >
        <g transform="translate(-24.000000, -272.000000)"  fill-rule="nonzero" id="左边导航">
            <g>
                <g id="left">
                    <g id="编组" transform="translate(0.000000, 63.000000)">
                        <g id="4" transform="translate(0.000000, 192.000000)">
                            <g id="库存icon" transform="translate(24.000000, 17.000000)">
                                <path d="M21.607,7.616 L21.607,19.15 C21.607,20.5015298 20.3648596,21.636 18.79,21.636 L8.104,21.636 C6.52940328,21.636 5.288,20.5017925 5.288,19.15 L5.288,7.616 L3.288,7.616 L3.288,19.15 C3.288,21.6486941 5.46312932,23.636 8.104,23.636 L18.79,23.636 C21.4309892,23.636 23.607,21.6486083 23.607,19.15 L23.607,7.616 L21.607,7.616 Z" id="路径"></path>
                                <path d="M10.844,8.812 C11.9482847,8.812 12.844,9.70771525 12.844,10.812 L12.844,12.062 C12.844,13.1670942 11.9484757,14.062 10.844,14.062 L9.594,14.062 C8.48871525,14.062 7.594,13.1672847 7.594,12.062 L7.594,10.812 C7.594,9.7075243 8.48890584,8.812 9.594,8.812 L10.844,8.812 Z M9.594,10.812 L9.594,12.062 L10.844,12.062 L10.844,10.812 L9.594,10.812 Z" id="路径"></path>
                                <path d="M10.844,15.125 C11.9482847,15.125 12.844,16.0207153 12.844,17.125 L12.844,18.344 C12.844,19.4482847 11.9482847,20.344 10.844,20.344 L9.594,20.344 C8.48890584,20.344 7.594,19.4484757 7.594,18.344 L7.594,17.125 C7.594,16.0205243 8.48890584,15.125 9.594,15.125 L10.844,15.125 Z M9.594,17.125 L9.594,18.344 L10.844,18.344 L10.844,17.125 L9.594,17.125 Z" id="路径"></path>
                                <path d="M17.156,15.125 C18.2602847,15.125 19.156,16.0207153 19.156,17.125 L19.156,18.344 C19.156,19.4482847 18.2602847,20.344 17.156,20.344 L15.906,20.344 C14.8017153,20.344 13.906,19.4482847 13.906,18.344 L13.906,17.125 C13.906,16.0207153 14.8017153,15.125 15.906,15.125 L17.156,15.125 Z M15.906,17.125 L15.906,18.344 L17.156,18.344 L17.156,17.125 L15.906,17.125 Z" id="路径"></path>
                                <path d="M2.04535791,9.81140921 L11.8032728,2.65571201 C12.8713066,1.87249893 14.3265597,1.8823234 15.3839216,2.67988509 L24.8278083,9.80335152 C25.2687257,10.1359328 25.8957702,10.0481091 26.2283515,9.60719171 C26.5609328,9.16627434 26.4731091,8.53922978 26.0321917,8.20664848 L16.588305,1.08318206 C14.8260351,-0.246087436 12.4006133,-0.262461542 10.6205569,1.04289358 L0.862642088,8.19859079 C0.417274577,8.52518874 0.32099283,9.1509904 0.647590786,9.59635791 C0.974188743,10.0417254 1.5999904,10.1380072 2.04535791,9.81140921 Z" id="路径"></path>
                            </g>
                        </g>
                    </g>
                </g>
            </g>
        </g>
    </g>
</svg>