<?xml version="1.0" encoding="UTF-8"?>
<svg width="22px" height="24px" viewBox="0 0 22 24" version="1.1" xmlns="http://www.w3.org/2000/svg" xmlns:xlink="http://www.w3.org/1999/xlink">
    <!-- Generator: Sketch 59.1 (86144) - https://sketch.com -->
    <title>计划icon</title>
    <desc>Created with Sketch.</desc>
    <g id="侧边菜单" stroke="none" stroke-width="1" fill-rule="evenodd">
        <g transform="translate(-26.000000, -209.000000)"  fill-rule="nonzero" id="左边导航">
            <g>
                <g id="left">
                    <g id="编组" transform="translate(0.000000, 63.000000)">
                        <g id="3" transform="translate(0.000000, 128.000000)">
                            <g id="计划icon" transform="translate(26.000000, 18.000000)">
                                <path d="M17.0419048,1.875 C19.7045223,1.875 21.8514286,4.08440077 21.8514286,6.79541556 L21.8514286,18.9545844 C21.8514286,21.6655992 19.7045223,23.875 17.0419048,23.875 L5.16666667,23.875 C2.50404914,23.875 0.357142857,21.6655992 0.357142857,18.9545844 L0.357142857,6.79541556 C0.357142857,4.08440077 2.50404914,1.875 5.16666667,1.875 L17.0419048,1.875 Z M17.0419048,3.875 L5.16666667,3.875 C3.62166514,3.875 2.35714286,5.17633137 2.35714286,6.79541556 L2.35714286,18.9545844 C2.35714286,20.5736686 3.62166514,21.875 5.16666667,21.875 L17.0419048,21.875 C18.5869063,21.875 19.8514286,20.5736686 19.8514286,18.9545844 L19.8514286,6.79541556 C19.8514286,5.17633137 18.5869063,3.875 17.0419048,3.875 Z" id="路径"></path>
                                <path d="M7.19119969,16.4605665 L8.82313115,17.8841776 C9.60651549,18.5675609 10.7828285,18.5368452 11.5294809,17.8135098 L15.0548507,14.3982326 C15.4515196,14.0139511 15.4615616,13.3808658 15.0772802,12.9841969 C14.6929987,12.587528 14.0599134,12.577486 13.6632445,12.9617674 L10.1378746,16.3770447 L8.50594316,14.9534335 C8.0897599,14.5903772 7.45806136,14.633445 7.09500497,15.0496283 C6.73194859,15.4658115 6.77501643,16.0975101 7.19119969,16.4605665 Z" id="路径"></path>
                                <path d="M5.23809524,1 L5.23809524,5 C5.23809524,5.55228475 5.68581049,6 6.23809524,6 C6.79037999,6 7.23809524,5.55228475 7.23809524,5 L7.23809524,1 C7.23809524,0.44771525 6.79037999,0 6.23809524,0 C5.68581049,0 5.23809524,0.44771525 5.23809524,1 Z" id="路径"></path>
                                <path d="M14.7619048,1 L14.7619048,5 C14.7619048,5.55228475 15.20962,6 15.7619048,6 C16.3141895,6 16.7619048,5.55228475 16.7619048,5 L16.7619048,1 C16.7619048,0.44771525 16.3141895,0 15.7619048,0 C15.20962,0 14.7619048,0.44771525 14.7619048,1 Z" id="路径"></path>
                                <path d="M2.34380952,10.242 L19.4866667,10.242 C20.0389514,10.242 20.4866667,9.79428475 20.4866667,9.242 C20.4866667,8.68971525 20.0389514,8.242 19.4866667,8.242 L2.34380952,8.242 C1.79152477,8.242 1.34380952,8.68971525 1.34380952,9.242 C1.34380952,9.79428475 1.79152477,10.242 2.34380952,10.242 Z" id="路径"></path>
                            </g>
                        </g>
                    </g>
                </g>
            </g>
        </g>
    </g>
</svg>